# xmcd CD database file
#
# Track frame offsets:
#	150
#	13640
#	30346
#	40541
#	55794
#	68301
#	82144
#	97089
#	108181
#	120626
#	137976
#	155661
#	168395
#	182199
#	196857
#	213060
#
# Disc length: 2973 seconds
#
# Revision: 0
# Processed by: cddbd v1.5.2PL0 Copyright (c) Steve Scherf et al.
# Submitted via: ACXtractor (MTCDDB.DLL V2003.12.21)
#
DISCID=cb0b9b10
DTITLE=Rick and Thel Carey - Mr and Mrs Country Music
DYEAR=2005
DGENRE=Country
TTITLE0=Sticking Together
TTITLE1=For Jenny a Rose
TTITLE2=One to Ten
TTITLE3=Pretty is as Pretty Does
TTITLE4=Don't let a Little thing Like That Stand in Your Way
TTITLE5=The Old Country Church
TTITLE6=Keep on Moving Goodtime Charlie
TTITLE7=Old Folks at Home
TTITLE8=Hymn of the River
TTITLE9=Little Joe
TTITLE10=The Little Word Who
TTITLE11=Stone By Stone
TTITLE12=Life Begins at Forty
TTITLE13=Barbie Doll
TTITLE14=When the Lights go Out
TTITLE15=Tonight we're Going to do it Our Way
EXTD=ID3G:   2 YEAR: 2005
EXTT0=
EXTT1=
EXTT2=
EXTT3=
EXTT4=
EXTT5=
EXTT6=
EXTT7=
EXTT8=
EXTT9=
EXTT10=
EXTT11=
EXTT12=
EXTT13=
EXTT14=
EXTT15=
PLAYORDER=
